<svg width="31" height="32" viewBox="0 0 31 32" fill="none" xmlns="http://www.w3.org/2000/svg">
<path d="M30.9166 12.3407V31.1665H0.0832672V3.83317H18.7374C18.6449 4.37984 18.5833 4.96067 18.5833 5.5415C18.5833 8.06984 19.5854 10.3078 21.1579 11.8794L15.4999 15.7915L3.1666 7.24984V10.6665L15.4999 19.2082L23.6708 13.5365C24.5033 13.8782 25.3666 14.0832 26.2916 14.0832C28.0337 14.0832 29.6216 13.4169 30.9166 12.3407ZM21.6666 5.5415C21.6666 8.37734 23.7324 10.6665 26.2916 10.6665C28.8508 10.6665 30.9166 8.37734 30.9166 5.5415C30.9166 2.70567 28.8508 0.416504 26.2916 0.416504C23.7324 0.416504 21.6666 2.70567 21.6666 5.5415Z" fill="white"/>
</svg>
