<svg width="75" height="70" viewBox="0 0 75 70" fill="none" xmlns="http://www.w3.org/2000/svg">
<g clip-path="url(#clip0_20:54)">
<path d="M37.4603 0C16.7655 0.021 0 15.6842 0 35C0.010561 40.4824 1.4009 45.8859 4.05898 50.7749C6.71705 55.664 10.5685 59.9018 15.303 63.147C15.1042 61.7253 15.1432 60.2574 15.3907 58.8056C12.9163 56.8009 10.7662 54.472 9.0075 51.8917H18.3412C19.2278 50.6002 20.1413 49.3227 21.735 48.3917C20.8013 44.8217 20.2305 40.8905 20.1255 36.75H21.135C21.4345 35.5244 21.922 34.3455 22.5825 33.25H20.1502C20.3092 29.0955 20.9325 25.1622 21.9225 21.609H35.625V27.8306C36.9511 28.0199 38.2249 28.4488 39.375 29.0934V21.609H53.7712C53.9663 22.3069 54.1425 23.023 54.3075 23.7489C55.5694 23.5685 56.851 23.541 58.1205 23.667C57.9752 22.9781 57.8155 22.292 57.6413 21.609H68.0588C69.6184 24.7085 70.623 28.0257 71.0325 31.4286C71.4675 34.9629 71.4757 39.1111 70.098 43.1683C69.6511 44.7184 69.0779 46.2343 68.3835 47.7029C69.2295 48.5338 70.254 49.3192 71.2838 50.1207C73.7188 45.4034 74.9887 40.2362 75 35C75 15.6702 58.2105 0 37.5 0H37.4603ZM39.375 3.9774C43.326 4.6046 47.1015 7.6426 50.076 12.6833C51.0345 14.308 51.891 16.1322 52.632 18.1083H39.375V3.9774ZM35.625 4.1153V18.1083H23.0625C23.8035 16.1322 24.66 14.308 25.6185 12.6833C28.4175 7.9387 31.9282 4.9714 35.625 4.116V4.1153ZM26.985 5.0624C25.242 6.7088 23.6775 8.7164 22.3328 10.9949C21.0728 13.1299 19.989 15.5218 19.0988 18.1083H9.0075C13.1588 12.0141 19.4888 7.3493 26.985 5.0624ZM49.0425 5.3865C56.091 7.7756 62.0325 12.2941 65.9925 18.1083H56.5913C55.7033 15.5218 54.621 13.1299 53.361 10.9949C52.104 8.8634 50.6512 6.9706 49.0433 5.3865H49.0425ZM6.94275 21.609H18.0487C17.115 25.2224 16.5427 29.141 16.3965 33.2507H3.804C4.03694 29.2179 5.10247 25.2652 6.942 21.6097L6.94275 21.609ZM3.804 36.75H16.3755C16.4722 40.8492 16.9905 44.7678 17.871 48.391H6.942C5.10247 44.7355 4.03694 40.7827 3.804 36.75Z" fill="black"/>
<path d="M57.0001 26.438C50.7863 26.438 45.7501 31.1392 45.7501 36.938C45.7501 42.7368 50.7863 47.438 57.0001 47.438C63.2123 47.438 68.2501 42.7368 68.2501 36.938C68.2501 31.1392 63.2123 26.438 57.0001 26.438ZM57.0001 48.9941C44.5726 48.9941 39.0001 54.1958 39.0001 65.7941V67.1941C39.0563 69.9521 40.3628 70.0333 43.1251 69.9941H70.8751C74.3963 69.9913 75.0241 69.9976 75.0001 67.1941V65.7941C75.0001 54.1958 69.4261 48.9941 57.0001 48.9941Z" fill="black"/>
<path d="M32.9999 30.3738C27.9097 30.3738 23.7817 34.2266 23.7817 38.9782C23.7817 43.7291 27.9097 47.5805 32.9999 47.5805C38.0902 47.5805 42.2174 43.7291 42.2174 38.9775C42.2174 34.2266 38.0902 30.3745 32.9999 30.3745V30.3738ZM32.9999 48.8545C22.8187 48.8545 18.252 53.1175 18.252 62.6193V63.7666C18.2985 66.0262 19.3687 66.0927 21.6315 66.0605H35.9737C35.6077 60.3989 37.3994 54.3859 41.8619 50.5632C39.6029 49.411 36.6682 48.8545 32.9999 48.8545Z" fill="black"/>
</g>
<defs>
<clipPath id="clip0_20:54">
<rect width="75" height="70" fill="white"/>
</clipPath>
</defs>
</svg>
