<svg width="75" height="70" viewBox="0 0 75 70" fill="none" xmlns="http://www.w3.org/2000/svg">
<g clip-path="url(#clip0_20:18)">
<path d="M37.4999 3.88892C30.9072 3.88892 24.4625 5.71355 18.9809 9.13208C13.4993 12.5506 9.22685 17.4095 6.70393 23.0943C4.18101 28.7791 3.5209 35.0345 4.80707 41.0695C6.09324 47.1045 9.26794 52.6479 13.9297 56.9989C18.5914 61.3499 24.5309 64.3129 30.9969 65.5133C37.4629 66.7138 44.1652 66.0977 50.256 63.7429C56.3469 61.3882 61.5529 57.4006 65.2156 52.2844C68.8783 47.1682 70.8333 41.1532 70.8333 35C70.8333 26.7488 67.3214 18.8356 61.0701 13.0012C54.8189 7.16668 46.3405 3.88892 37.4999 3.88892ZM37.4999 62.2222C31.7313 62.2222 26.0922 60.6257 21.2958 57.6345C16.4993 54.6433 12.761 50.3917 10.5534 45.4175C8.34587 40.4433 7.76827 34.9698 8.89368 29.6892C10.0191 24.4086 12.7969 19.5581 16.876 15.751C20.955 11.9439 26.152 9.35125 31.8098 8.30087C37.4676 7.2505 43.332 7.78959 48.6615 9.84997C53.991 11.9104 58.5462 15.3995 61.7511 19.8762C64.956 24.3528 66.6666 29.616 66.6666 35C66.6666 42.2198 63.5937 49.1439 58.1239 54.249C52.6541 59.3542 45.2354 62.2222 37.4999 62.2222Z" fill="black"/>
<path d="M22.6874 30.8972C24.9885 30.8972 26.854 29.156 26.854 27.0083C26.854 24.8605 24.9885 23.1194 22.6874 23.1194C20.3862 23.1194 18.5207 24.8605 18.5207 27.0083C18.5207 29.156 20.3862 30.8972 22.6874 30.8972Z" fill="black"/>
<path d="M52.1875 30.8972C54.4887 30.8972 56.3541 29.156 56.3541 27.0083C56.3541 24.8605 54.4887 23.1194 52.1875 23.1194C49.8863 23.1194 48.0208 24.8605 48.0208 27.0083C48.0208 29.156 49.8863 30.8972 52.1875 30.8972Z" fill="black"/>
<path d="M37.7706 54.8527C41.5925 54.8574 45.3175 53.7304 48.4097 51.634C51.502 49.5376 53.802 46.5798 54.979 43.186H20.5623C21.7393 46.5798 24.0393 49.5376 27.1315 51.634C30.2238 53.7304 33.9487 54.8574 37.7706 54.8527Z" fill="black"/>
</g>
<defs>
<clipPath id="clip0_20:18">
<rect width="75" height="70" fill="white"/>
</clipPath>
</defs>
</svg>
