<svg width="27" height="35" viewBox="0 0 27 35" fill="none" xmlns="http://www.w3.org/2000/svg">
<path d="M13.5 0.4375C10.128 0.441693 6.89526 1.85548 4.51089 4.36873C2.12653 6.88198 0.785242 10.2895 0.781264 13.8438C0.777225 16.7483 1.67733 19.574 3.34351 21.8875C3.34351 21.8875 3.69039 22.3689 3.74704 22.4384L13.5 34.5625L23.2576 22.4323C23.3085 22.3677 23.6565 21.8875 23.6565 21.8875L23.6577 21.8838C25.323 19.5714 26.2227 16.747 26.2188 13.8438C26.2148 10.2895 24.8735 6.88198 22.4891 4.36873C20.1048 1.85548 16.872 0.441693 13.5 0.4375ZM13.5 18.7188C12.5853 18.7188 11.6911 18.4328 10.9305 17.8972C10.1699 17.3615 9.57713 16.6001 9.22707 15.7093C8.87702 14.8185 8.78543 13.8383 8.96388 12.8927C9.14234 11.947 9.58283 11.0784 10.2296 10.3966C10.8765 9.71482 11.7006 9.25052 12.5977 9.06242C13.4949 8.87432 14.4248 8.97086 15.2699 9.33984C16.115 9.70881 16.8374 10.3337 17.3456 11.1353C17.8538 11.937 18.125 12.8796 18.125 13.8438C18.1235 15.1362 17.6357 16.3752 16.7687 17.2891C15.9017 18.203 14.7262 18.7171 13.5 18.7188Z" fill="white"/>
</svg>
