<svg width="32" height="41" viewBox="0 0 32 41" fill="none" xmlns="http://www.w3.org/2000/svg">
<path d="M29.9941 40.8332C12.9321 40.8637 -0.0178897 24.2107 0.000110294 2.71579C0.000110294 1.31025 0.896111 0.166504 2.00011 0.166504H7.28011C8.27011 0.166504 9.11211 1.09167 9.25811 2.33709C9.60632 5.32368 10.29 8.23133 11.2881 10.9711L11.4941 11.5354C11.6325 11.9151 11.6623 12.3442 11.5783 12.7489C11.4943 13.1535 11.3019 13.5081 11.0341 13.7517C9.39811 15.236 8.77411 18.2225 10.0481 20.5507C11.6461 23.4736 13.6601 26.0356 15.9601 28.0664C17.7941 29.6829 20.1441 28.8899 21.3101 26.8133C21.5016 26.4721 21.7809 26.2266 22.0997 26.1194C22.4186 26.0121 22.7569 26.0499 23.0561 26.2262L23.4981 26.4855C25.6541 27.7563 27.9421 28.6255 30.2921 29.0678C31.2721 29.2533 32.0001 30.3234 32.0001 31.584V38.2915C32.0001 38.6255 31.9483 38.9562 31.8477 39.2647C31.7471 39.5733 31.5996 39.8536 31.4136 40.0896C31.2277 40.3257 31.007 40.5128 30.7641 40.6404C30.5212 40.768 30.2609 40.8335 29.9981 40.8332H29.9941Z" fill="white"/>
</svg>
