<svg width="33" height="39" viewBox="0 0 33 39" fill="none" xmlns="http://www.w3.org/2000/svg">
<path d="M16.5 0.6875C7.56074 0.6875 0.3125 9.11113 0.3125 19.5C0.3125 29.8889 7.56074 38.3125 16.5 38.3125C25.4393 38.3125 32.6875 29.8889 32.6875 19.5C32.6875 9.11113 25.4393 0.6875 16.5 0.6875ZM11.062 22.3639C11.062 23.5312 10.249 24.4803 9.24453 24.4803C8.76397 24.4803 8.30147 24.2577 7.9582 23.8588C7.61856 23.4599 7.42705 22.9224 7.42705 22.3639C7.42705 21.1965 8.24004 20.2475 9.24453 20.2475H11.062V22.3639ZM15.9038 28.0076C15.9038 29.175 15.0908 30.124 14.0863 30.124C13.0818 30.124 12.2688 29.175 12.2688 28.0076V22.3639C12.2688 21.1965 13.0818 20.2475 14.0863 20.2475C14.5669 20.2475 15.0294 20.47 15.3727 20.8689C15.7159 21.2679 15.9038 21.8054 15.9038 22.3639V28.0076ZM14.0899 18.8365H9.24814C8.24365 18.8365 7.43066 17.8875 7.43066 16.7201C7.43066 15.5527 8.24365 14.6037 9.24814 14.6037H14.0899C15.0944 14.6037 15.9074 15.5527 15.9074 16.7201C15.9038 17.8917 15.0908 18.8365 14.0899 18.8365ZM14.0899 13.1928C13.6094 13.1928 13.1469 12.9702 12.8036 12.5713C12.4604 12.1724 12.2725 11.6391 12.2725 11.0764C12.2725 9.90898 13.0854 8.95996 14.0899 8.95996C15.0944 8.95996 15.9074 9.90898 15.9074 11.0764V13.1928H14.0899ZM17.1143 11.0764C17.1143 9.90898 17.9272 8.95996 18.9317 8.95996C19.9362 8.95996 20.7492 9.90898 20.7492 11.0764V16.7201C20.7492 17.8875 19.9362 18.8365 18.9317 18.8365C17.9272 18.8365 17.1143 17.8875 17.1143 16.7201V11.0764ZM18.9317 30.124C17.9272 30.124 17.1143 29.175 17.1143 28.0076V25.8912H18.9317C19.9362 25.8912 20.7492 26.8402 20.7492 28.0076C20.7492 29.175 19.9362 30.124 18.9317 30.124ZM23.7735 24.4803H18.9317C18.4512 24.4803 17.9887 24.2577 17.6454 23.8588C17.3021 23.4599 17.1143 22.9266 17.1143 22.3639C17.1143 21.1965 17.9272 20.2475 18.9317 20.2475H23.7735C24.778 20.2475 25.591 21.1965 25.591 22.3639C25.591 23.5312 24.778 24.4803 23.7735 24.4803ZM23.7735 18.8365H21.9561V16.7201C21.9561 15.5527 22.769 14.6037 23.7735 14.6037C24.778 14.6037 25.591 15.5527 25.591 16.7201C25.591 17.8875 24.778 18.8365 23.7735 18.8365Z" fill="#F8F8F8"/>
</svg>
