<svg width="37" height="43" viewBox="0 0 37 43" fill="none" xmlns="http://www.w3.org/2000/svg">
<path d="M18.5 0C8.28371 0 0 9.62701 0 21.5C0 33.373 8.28371 43 18.5 43C28.7163 43 37 33.373 37 21.5C37 9.62701 28.7163 0 18.5 0ZM27.3907 16.2066C27.4031 16.4321 27.4031 16.6673 27.4031 16.8977C27.4031 23.9427 22.7864 32.058 14.3499 32.058C11.7483 32.058 9.33672 31.1798 7.30502 29.6681C7.67667 29.7161 8.03181 29.7353 8.41172 29.7353C10.559 29.7353 12.5329 28.8906 14.1062 27.4605C12.0911 27.4125 10.398 25.8768 9.81987 23.7652C10.526 23.8852 11.1619 23.8852 11.8887 23.6692C10.8511 23.4242 9.91846 22.7693 9.24924 21.8157C8.58003 20.8621 8.21551 19.6687 8.21763 18.4382V18.371C8.82467 18.7693 9.53906 19.0141 10.2865 19.0477C9.65817 18.561 9.14287 17.9017 8.78631 17.1282C8.42974 16.3546 8.24292 15.4908 8.24241 14.6133C8.24241 13.6199 8.4654 12.7128 8.86596 11.9258C10.0177 13.5735 11.4548 14.9211 13.0841 15.881C14.7133 16.841 16.4981 17.3917 18.3224 17.4975C17.6741 13.8742 20.0031 10.942 22.8029 10.942C24.1243 10.942 25.3136 11.585 26.1519 12.6217C27.1884 12.3961 28.1795 11.945 29.0632 11.3403C28.7204 12.5737 28.0019 13.6151 27.048 14.2725C27.973 14.1574 28.865 13.8598 29.6908 13.4423C29.0673 14.5077 28.2868 15.4531 27.3907 16.2066Z" fill="white"/>
</svg>
