<svg width="37" height="43" viewBox="0 0 37 43" fill="none" xmlns="http://www.w3.org/2000/svg">
<path fill-rule="evenodd" clip-rule="evenodd" d="M26.8481 25.7678C26.3887 25.5009 24.1363 24.2144 23.717 24.0353C23.2977 23.8579 22.9924 23.7701 22.6856 24.304C22.3804 24.8344 21.5032 26.0348 21.2365 26.3895C20.9682 26.7461 20.7015 26.7891 20.2436 26.5239C19.7858 26.2552 18.3088 25.6944 16.559 23.8812C15.1978 22.4694 14.2774 20.7261 14.0107 20.1922C13.744 19.66 13.9814 19.3716 14.2111 19.1064C14.4177 18.8681 14.669 18.4847 14.8987 18.1747C15.1284 17.863 15.2039 17.6408 15.3565 17.2843C15.5107 16.9295 15.4336 16.6196 15.318 16.3526C15.2039 16.0857 14.2882 13.4644 13.9058 12.3984C13.5343 11.361 13.1566 11.5026 12.876 11.4847C12.6078 11.4703 12.3025 11.4667 11.9973 11.4667C11.692 11.4667 11.1956 11.5993 10.7763 12.1332C10.3554 12.6654 9.17292 13.9536 9.17292 16.5748C9.17292 19.1942 10.8133 21.7258 11.043 22.0824C11.2727 22.4371 14.2728 27.8157 18.8685 30.1216C19.963 30.6698 20.8156 30.9977 21.48 31.2414C22.5777 31.6481 23.5767 31.5907 24.366 31.4528C25.2448 31.3005 27.0763 30.1646 27.4586 28.9212C27.8394 27.6777 27.8394 26.6117 27.7253 26.3895C27.6113 26.1674 27.306 26.0348 26.8466 25.7678H26.8481ZM18.4892 39.0315H18.483C15.7534 39.0321 13.0739 38.1793 10.7254 36.5626L10.1704 36.1792L4.40146 37.9386L5.94158 31.4026L5.57929 30.7325C4.05326 27.9095 3.24566 24.6423 3.24983 21.3084C3.25292 11.5438 10.0887 3.59953 18.4954 3.59953C22.5654 3.59953 26.3918 5.44495 29.2685 8.79178C30.6875 10.434 31.8121 12.3869 32.5774 14.5375C33.3427 16.6881 33.7334 18.9937 33.7271 21.3209C33.724 31.0855 26.8882 39.0315 18.4892 39.0315ZM31.4577 6.24941C29.7591 4.26231 27.738 2.68674 25.5116 1.61401C23.2853 0.541271 20.8978 -0.00730328 18.4877 7.34181e-05C8.38358 7.34181e-05 0.15725 9.55862 0.154167 21.3066C0.152625 25.0619 0.995917 28.7277 2.60079 31.958L0 43.0001L9.71867 40.0367C12.4071 41.739 15.4199 42.6309 18.4815 42.631H18.4892C28.5933 42.631 36.8196 33.0724 36.8227 21.3227C36.8302 18.5228 36.3598 15.749 35.439 13.1617C34.5181 10.5744 33.1649 8.22503 31.4577 6.24941Z" fill="white"/>
</svg>
