<svg width="1500" height="123" viewBox="0 0 1500 123" fill="none" xmlns="http://www.w3.org/2000/svg">
<path d="M-224 0L-163.533 5.45155C-103.067 10.6993 17.8667 21.9081 138.8 46.2107C259.733 70.8191 380.667 108.521 501.6 119.577C622.533 130.429 743.467 114.126 864.4 89.6702C985.333 65.2147 1106.27 32.6073 1227.2 24.4555C1348.13 16.3037 1469.07 32.6073 1529.53 40.7592L1590 48.911V0H1529.53C1469.07 0 1348.13 0 1227.2 0C1106.27 0 985.333 0 864.4 0C743.467 0 622.533 0 501.6 0C380.667 0 259.733 0 138.8 0C17.8667 0 -103.067 0 -163.533 0H-224Z" fill="#EFEFEF"/>
</svg>
